<?xml version="1.0" standalone="no"?>
<!DOCTYPE svg PUBLIC "-//W3C//DTD SVG 20010904//EN"
 "http://www.w3.org/TR/2001/REC-SVG-20010904/DTD/svg10.dtd">
<svg version="1.0" xmlns="http://www.w3.org/2000/svg"
 width="834.000000pt" height="834.000000pt" viewBox="0 0 834.000000 834.000000"
 preserveAspectRatio="xMidYMid meet">
<metadata>
Created by potrace 1.11, written by Peter Selinger 2001-2013
</metadata>
<g transform="translate(0.000000,834.000000) scale(0.100000,-0.100000)"
fill="#000000" stroke="none">
<path d="M4158 7800 c-115 -14 -225 -53 -288 -102 l-25 -20 45 5 c25 3 142 11
260 17 118 6 226 13 240 15 14 2 31 4 38 4 24 2 -20 60 -53 70 -47 15 -144 19
-217 11z"/>
<path d="M5233 7656 c-23 -7 -59 -24 -80 -37 -29 -19 -54 -24 -108 -26 -58 -1
-89 -9 -184 -48 -121 -49 -173 -78 -208 -116 -54 -59 -193 -396 -193 -468 0
-45 22 -93 56 -121 16 -14 41 -45 56 -70 45 -77 205 -286 245 -320 61 -50 171
-98 311 -134 l130 -34 6 24 c6 23 20 29 56 25 8 -1 81 -27 162 -57 81 -31 152
-53 157 -50 5 4 8 17 6 31 -4 40 10 39 72 -3 32 -22 179 -120 327 -218 170
-113 281 -194 301 -219 18 -22 49 -74 68 -116 35 -72 62 -99 101 -99 15 0 67
-82 125 -194 42 -82 75 -196 69 -241 -3 -24 -23 2 -147 188 -120 181 -161 235
-161 214 0 -1 27 -62 60 -135 90 -199 85 -200 -80 -12 -144 165 -228 244 -318
297 -72 42 -172 86 -172 75 0 -4 88 -95 196 -203 130 -130 194 -201 189 -209
-5 -9 -26 -11 -66 -7 -33 3 -59 3 -59 0 0 -10 94 -148 163 -238 115 -152 197
-335 231 -514 17 -88 33 -300 22 -290 -4 4 -18 40 -31 80 -22 68 -24 70 -20
29 3 -25 7 -99 10 -165 3 -66 8 -142 10 -170 3 -27 7 -90 10 -140 9 -149 12
-161 53 -192 20 -15 43 -27 50 -25 16 4 15 -35 -2 -45 -22 -13 -36 -49 -36
-94 0 -47 -51 -303 -74 -365 -21 -62 -45 -104 -81 -150 -22 -27 -37 -58 -43
-95 -6 -30 -18 -74 -28 -98 -17 -42 -17 -42 -56 -36 -55 10 -67 -4 -142 -160
-48 -101 -77 -147 -125 -200 -35 -38 -76 -94 -91 -126 -18 -35 -53 -79 -93
-115 -35 -32 -81 -84 -102 -114 -22 -30 -54 -72 -72 -93 -37 -41 -40 -55 -18
-63 9 -4 32 10 60 35 77 71 80 53 6 -57 -29 -44 -32 -55 -20 -63 23 -14 72
-10 102 9 15 11 122 138 238 283 187 236 256 315 266 305 10 -9 -66 -151 -115
-216 -116 -155 -300 -369 -427 -495 -153 -153 -275 -253 -477 -390 -80 -55
-145 -101 -144 -103 2 -1 61 22 132 52 71 30 174 71 229 91 180 67 336 159
486 286 42 35 130 110 196 166 105 89 231 228 218 242 -2 2 -16 -4 -31 -14
-31 -20 -40 -37 216 425 81 146 166 301 190 345 43 78 44 79 52 50 19 -69 -18
-166 -151 -393 -56 -96 -99 -178 -96 -183 20 -31 54 12 140 176 111 210 342
575 329 520 -4 -16 -19 -74 -34 -127 -15 -54 -25 -98 -23 -98 3 0 24 15 46 33
23 17 46 31 53 29 7 -1 47 103 100 258 71 209 92 260 106 260 10 0 18 -5 18
-12 0 -26 -94 -373 -140 -513 -100 -310 -109 -353 -59 -292 36 44 46 46 55 12
3 -14 9 -25 13 -25 3 0 22 30 41 65 42 80 63 83 68 12 3 -39 -5 -65 -38 -137
-33 -73 -41 -98 -38 -137 l3 -48 70 147 c39 83 76 148 84 148 9 0 11 -6 6 -17
-34 -86 -68 -193 -62 -199 9 -10 2 -23 95 183 61 135 93 222 121 330 22 82 60
207 86 278 129 357 155 471 162 720 6 208 -8 331 -108 925 -38 228 -68 421
-66 430 5 24 61 -95 95 -200 37 -116 62 -259 103 -597 18 -142 36 -262 41
-268 5 -6 7 61 4 167 -23 735 -256 1373 -689 1891 -155 185 -168 197 -209 197
-33 0 -41 7 -109 92 -149 187 -218 264 -277 311 -33 26 -97 94 -142 152 -80
104 -81 106 -283 239 -111 74 -255 171 -319 214 -118 81 -218 129 -324 157
-84 22 -248 29 -301 11z"/>
<path d="M3947 7590 c-60 -10 -111 -21 -114 -23 -8 -8 53 -37 78 -37 12 0 37
10 56 21 32 20 38 21 94 9 32 -7 87 -10 122 -8 60 5 137 33 137 50 0 15 -262
7 -373 -12z"/>
<path d="M3645 7446 c-146 -32 -191 -46 -193 -58 -3 -14 32 -8 210 38 117 31
215 57 217 60 11 11 -60 -1 -234 -40z"/>
<path d="M2333 7126 c-200 -105 -409 -269 -588 -461 -130 -139 -158 -176 -153
-204 2 -17 23 -1 118 93 232 229 369 348 613 529 155 117 156 120 10 43z"/>
<path d="M3570 7159 c-36 -4 -94 -14 -129 -24 -58 -15 -993 -385 -1058 -418
-36 -19 -445 -369 -535 -458 -74 -73 -87 -99 -37 -73 29 14 31 14 26 0 -10
-26 -518 -880 -533 -896 -12 -12 -14 -10 -14 20 1 90 40 179 188 432 64 110
77 138 64 143 -8 3 -19 0 -24 -7 -4 -7 -106 -174 -225 -370 -120 -196 -218
-356 -220 -354 -2 1 9 43 23 92 14 49 32 112 39 139 l14 50 -62 -66 c-77 -82
-121 -166 -152 -291 -23 -94 -86 -250 -93 -230 -6 19 57 306 101 462 25 85 63
203 84 262 l40 106 -46 -34 c-32 -25 -47 -31 -50 -22 -21 67 -20 67 -58 0 -19
-34 -39 -60 -44 -56 -20 12 -8 97 26 183 42 109 54 171 33 171 -9 0 -42 -59
-88 -157 -41 -87 -77 -162 -82 -168 -18 -21 -6 26 37 138 42 110 47 137 26
137 -11 0 -28 -41 -129 -305 -58 -149 -83 -229 -88 -275 -4 -47 -20 -95 -54
-170 -138 -304 -191 -594 -191 -1050 0 -291 22 -506 82 -796 45 -218 31 -203
-25 26 -40 161 -68 323 -105 611 l-28 214 -8 -140 c-10 -174 6 -423 40 -617
92 -534 325 -1014 729 -1498 118 -142 243 -265 426 -423 96 -82 227 -202 290
-267 63 -64 158 -148 210 -187 174 -128 460 -315 521 -339 80 -33 253 -74 310
-74 52 0 181 36 251 71 l48 23 30 -22 30 -22 157 77 c192 94 240 136 301 265
95 198 114 313 67 402 -63 119 -182 286 -255 357 -100 100 -196 148 -370 188
-99 22 -136 27 -180 21 -63 -9 -109 3 -288 74 -62 24 -112 41 -112 37 0 -3 9
-17 20 -31 19 -24 26 -50 14 -50 -3 0 -47 20 -98 43 -50 24 -147 68 -214 98
l-124 54 -129 132 c-141 145 -175 191 -215 296 -26 68 -27 69 -59 64 -17 -3
-36 -2 -42 1 -19 12 -176 403 -166 413 13 13 23 0 148 -198 60 -95 111 -171
112 -169 2 2 -14 59 -36 127 -23 68 -37 127 -32 132 4 4 43 -36 87 -90 190
-237 399 -398 544 -419 l45 -7 -65 54 c-185 155 -410 380 -410 410 0 4 32 -5
72 -22 39 -16 73 -27 76 -25 2 3 -45 81 -104 173 -218 337 -296 535 -320 806
-4 46 -3 77 3 77 5 0 25 -56 44 -126 18 -69 37 -130 41 -137 20 -33 18 26 -13
270 l-34 267 -42 28 c-29 20 -47 42 -59 74 -20 52 -16 58 47 68 38 6 39 8 39
46 0 37 -3 41 -37 55 -57 22 -68 31 -68 50 0 14 27 39 42 40 1 0 20 101 43
225 40 218 44 229 100 345 32 66 72 151 89 189 31 68 31 68 64 62 46 -9 70 19
147 173 41 81 90 158 140 220 42 53 92 125 111 161 28 54 42 69 82 89 39 20
59 41 102 106 29 44 60 87 68 94 9 7 13 19 10 26 -4 12 -15 9 -55 -11 -27 -14
-52 -23 -55 -20 -3 2 15 35 39 73 24 37 47 73 51 80 11 18 -85 -11 -136 -40
-86 -51 -167 -146 -372 -437 -123 -174 -198 -269 -212 -270 -21 0 -15 12 47
94 50 67 60 86 60 120 0 39 10 52 222 286 295 326 503 536 597 604 43 31 144
96 224 146 112 69 155 90 182 90 19 0 74 11 122 26 120 34 259 54 443 62 l155
7 0 40 c0 33 -4 42 -25 51 -34 16 -142 22 -220 13z"/>
<path d="M1597 6782 c-34 -42 -43 -48 -79 -49 -84 -4 -118 -86 -62 -152 l26
-31 89 130 c79 116 95 150 71 150 -4 0 -24 -22 -45 -48z"/>
<path d="M2815 6271 c-122 -59 -284 -191 -429 -350 -319 -351 -597 -848 -606
-1086 -3 -76 0 -119 8 -109 5 5 64 144 132 309 162 396 213 500 298 605 70 86
439 444 505 490 39 27 173 170 160 170 -4 0 -35 -13 -68 -29z"/>
<path d="M6312 3333 c-33 -89 -227 -535 -253 -582 -18 -31 -53 -83 -79 -116
-68 -85 -411 -420 -563 -549 -70 -60 -125 -111 -123 -114 16 -15 183 94 330
217 253 210 423 408 529 618 64 126 137 339 167 486 13 64 8 85 -8 40z"/>
<path d="M6485 1718 c-134 -154 -362 -351 -608 -524 -70 -48 -125 -90 -123
-91 2 -2 28 5 57 16 153 58 464 298 631 488 65 74 123 165 116 182 -2 5 -34
-27 -73 -71z"/>
<path d="M6625 1625 c-97 -150 -107 -167 -102 -171 10 -10 176 76 187 97 14
25 9 78 -12 129 l-15 35 -58 -90z"/>
<path d="M4882 1249 c-23 -5 -56 -17 -71 -29 -27 -19 -43 -20 -250 -20 l-221
0 0 -29 c0 -16 9 -39 19 -52 17 -21 29 -24 105 -28 140 -5 302 39 528 144 l53
25 -60 -2 c-33 -1 -79 -5 -103 -9z"/>
<path d="M3923 689 c-24 -12 -41 -25 -38 -29 3 -5 53 -8 111 -8 113 0 127 8
63 40 -46 23 -86 22 -136 -3z"/>
<path d="M4015 550 c-66 -4 -143 -8 -171 -9 -35 -1 -60 -7 -75 -20 l-24 -20
23 -23 c22 -22 29 -23 170 -23 135 1 153 3 214 27 36 15 79 34 93 44 25 16 25
18 9 24 -24 9 -90 9 -239 0z"/>
</g>
</svg>
